<?xml version="1.0" ?><svg baseProfile="tiny" id="Layer_1" version="1.2" viewBox="0 0 512 512" xml:space="preserve" xmlns="http://www.w3.org/2000/svg" xmlns:xlink="http://www.w3.org/1999/xlink"><g id="XMLID_1676_"><circle cx="256" cy="256" fill="#F3726E" id="XMLID_2285_" r="256"/><g id="XMLID_307_"><g id="XMLID_309_"><path d="M136.2,199.3v206.3h49.9V199.3H136.2z M184.8,396h-47.3v-4.5h47.3V396L184.8,396z      M184.8,384.6h-47.3v-4.5h47.3V384.6L184.8,384.6z M184.8,373.2h-47.3v-4.5h47.3V373.2L184.8,373.2z M184.8,361.8h-47.3v-4.5     h47.3V361.8L184.8,361.8z M184.8,350.4h-47.3v-4.5h47.3V350.4L184.8,350.4z M184.8,338.9h-47.3v-4.5h47.3V338.9L184.8,338.9z      M184.8,327.6h-47.3v-4.5h47.3V327.6L184.8,327.6z M184.8,316.2h-47.3v-4.5h47.3V316.2L184.8,316.2z M184.8,304.7h-47.3v-4.5     h47.3V304.7L184.8,304.7z M184.8,293.3h-47.3v-4.5h47.3V293.3L184.8,293.3z M184.8,281.9h-47.3v-4.5h47.3V281.9L184.8,281.9z      M184.8,270.5h-47.3V266h47.3V270.5L184.8,270.5z M184.8,259.1h-47.3v-4.5h47.3V259.1L184.8,259.1z M184.8,247.7h-47.3v-4.5h47.3     V247.7L184.8,247.7z M184.8,236.2h-47.3v-4.5h47.3V236.2L184.8,236.2z M184.8,224.8h-47.3v-4.5h47.3V224.8L184.8,224.8z      M184.8,213.4h-47.3V209h47.3V213.4L184.8,213.4z" fill="#FFFFFF" id="XMLID_432_"/><path d="M326,199.3v206.3h49.9V199.3H326z M374.6,396h-47.3v-4.5h47.3V396z M374.6,384.6h-47.3     v-4.5h47.3V384.6z M374.6,373.2h-47.3v-4.5h47.3V373.2z M374.6,361.8h-47.3v-4.5h47.3V361.8z M374.6,350.4h-47.3v-4.5h47.3V350.4     z M374.6,338.9h-47.3v-4.5h47.3V338.9z M374.6,327.6h-47.3v-4.5h47.3V327.6z M374.6,316.2h-47.3v-4.5h47.3V316.2z M374.6,304.7     h-47.3v-4.5h47.3V304.7z M374.6,293.3h-47.3v-4.5h47.3V293.3z M374.6,281.9h-47.3v-4.5h47.3V281.9z M374.6,270.5h-47.3V266h47.3     V270.5z M374.6,259.1h-47.3v-4.5h47.3V259.1z M374.6,247.7h-47.3v-4.5h47.3V247.7z M374.6,236.2h-47.3v-4.5h47.3V236.2z      M374.6,224.8h-47.3v-4.5h47.3V224.8z M374.6,213.4h-47.3V209h47.3V213.4z" fill="#FFFFFF" id="XMLID_413_"/><g id="XMLID_360_"><rect fill="#FFFFFF" height="14.6" id="XMLID_412_" width="17.3" x="267.9" y="303.1"/><rect fill="#FFFFFF" height="14.6" id="XMLID_411_" width="17.3" x="288.1" y="337.1"/><rect fill="#FFFFFF" height="14.6" id="XMLID_410_" width="17.3" x="247.7" y="303.1"/><rect fill="#FFFFFF" height="14.6" id="XMLID_409_" width="17.3" x="267.9" y="320.1"/><rect fill="#FFFFFF" height="14.6" id="XMLID_408_" width="17.3" x="227.5" y="303.1"/><rect fill="#FFFFFF" height="14.6" id="XMLID_407_" width="17.3" x="288.1" y="320.1"/><rect fill="#FFFFFF" height="14.6" id="XMLID_406_" width="17.3" x="207.3" y="354"/><rect fill="#FFFFFF" height="13.6" id="XMLID_405_" width="17.3" x="207.3" y="388"/><rect fill="#FFFFFF" height="14.6" id="XMLID_404_" width="17.3" x="207.3" y="371"/><rect fill="#FFFFFF" height="14.6" id="XMLID_403_" width="14" x="190.6" y="371"/><rect fill="#FFFFFF" height="14.6" id="XMLID_402_" width="17.3" x="207.3" y="320.1"/><rect fill="#FFFFFF" height="14.6" id="XMLID_401_" width="17.3" x="207.3" y="337.1"/><rect fill="#FFFFFF" height="14.6" id="XMLID_400_" width="17.3" x="227.5" y="320.1"/><rect fill="#FFFFFF" height="14.6" id="XMLID_399_" width="17.3" x="267.9" y="337.1"/><rect fill="#FFFFFF" height="14.6" id="XMLID_398_" width="17.3" x="288.1" y="354"/><rect fill="#FFFFFF" height="14.6" id="XMLID_397_" width="17.3" x="247.7" y="354"/><rect fill="#FFFFFF" height="14.6" id="XMLID_396_" width="17.3" x="227.5" y="337.1"/><rect fill="#FFFFFF" height="14.6" id="XMLID_395_" width="14" x="190.6" y="354"/><rect fill="#FFFFFF" height="14.6" id="XMLID_394_" width="17.3" x="247.7" y="337.1"/><rect fill="#FFFFFF" height="14.6" id="XMLID_393_" width="17.3" x="247.7" y="320.1"/><rect fill="#FFFFFF" height="14.6" id="XMLID_392_" width="17.3" x="267.9" y="354"/><rect fill="#FFFFFF" height="14.6" id="XMLID_391_" width="17.3" x="227.5" y="354"/><rect fill="#FFFFFF" height="14.6" id="XMLID_390_" width="17.3" x="267.9" y="371"/><rect fill="#FFFFFF" height="14.6" id="XMLID_389_" width="17.3" x="227.5" y="371"/><rect fill="#FFFFFF" height="14.6" id="XMLID_388_" width="17.3" x="247.7" y="371"/><rect fill="#FFFFFF" height="14.8" id="XMLID_387_" width="17.3" x="207.3" y="285.9"/><rect fill="#FFFFFF" height="14.6" id="XMLID_386_" width="14" x="190.6" y="303.1"/><rect fill="#FFFFFF" height="14.6" id="XMLID_385_" width="14" x="190.6" y="320.1"/><rect fill="#FFFFFF" height="14.6" id="XMLID_384_" width="14" x="190.6" y="337.1"/><rect fill="#FFFFFF" height="14.6" id="XMLID_383_" width="17.3" x="207.3" y="303.1"/><rect fill="#FFFFFF" height="14.8" id="XMLID_382_" width="17.3" x="247.7" y="285.9"/><rect fill="#FFFFFF" height="14.8" id="XMLID_381_" width="17.3" x="227.5" y="285.9"/><rect fill="#FFFFFF" height="13.6" id="XMLID_380_" width="13.3" x="308.3" y="388"/><rect fill="#FFFFFF" height="14.8" id="XMLID_379_" width="14" x="190.6" y="285.9"/><rect fill="#FFFFFF" height="13.6" id="XMLID_378_" width="17.3" x="227.5" y="388"/><rect fill="#FFFFFF" height="14.8" id="XMLID_377_" width="17.3" x="267.9" y="285.9"/><rect fill="#FFFFFF" height="14.8" id="XMLID_376_" width="13.3" x="308.3" y="285.9"/><path d="M186.1,281.9v123.8H326V281.9H186.1z M323.8,403.8H188.3V283.6h135.5V403.8z" fill="#FFFFFF" id="XMLID_373_"/><rect fill="#FFFFFF" height="13.6" id="XMLID_372_" width="14" x="190.6" y="388"/><rect fill="#FFFFFF" height="14.6" id="XMLID_371_" width="17.3" x="288.1" y="371"/><rect fill="#FFFFFF" height="14.6" id="XMLID_370_" width="13.3" x="308.3" y="371"/><rect fill="#FFFFFF" height="13.6" id="XMLID_369_" width="17.3" x="288.1" y="388"/><rect fill="#FFFFFF" height="13.6" id="XMLID_368_" width="17.3" x="247.7" y="388"/><rect fill="#FFFFFF" height="14.8" id="XMLID_367_" width="17.3" x="288.1" y="285.9"/><rect fill="#FFFFFF" height="13.6" id="XMLID_366_" width="17.3" x="267.9" y="388"/><rect fill="#FFFFFF" height="14.6" id="XMLID_365_" width="17.3" x="288.1" y="303.1"/><rect fill="#FFFFFF" height="14.6" id="XMLID_364_" width="13.3" x="308.3" y="303.1"/><rect fill="#FFFFFF" height="14.6" id="XMLID_363_" width="13.3" x="308.3" y="354"/><rect fill="#FFFFFF" height="14.6" id="XMLID_362_" width="13.3" x="308.3" y="320.1"/><rect fill="#FFFFFF" height="14.6" id="XMLID_361_" width="13.3" x="308.3" y="337.1"/></g><path d="M186.7,199.3v82.4h55.2v-82.4H186.7z M189.7,203.5c0-0.8,0.6-1.5,1.5-1.5h18.9     c0.8,0,1.5,0.6,1.5,1.5v20.7c0,0.8-0.6,1.5-1.5,1.5h-18.9c-0.8,0-1.5-0.6-1.5-1.5V203.5z M189.9,230.2c0-0.8,0.6-1.5,1.5-1.5     h18.9c0.8,0,1.5,0.6,1.5,1.5v20.7c0,0.8-0.6,1.5-1.5,1.5h-18.9c-0.8,0-1.5-0.6-1.5-1.5V230.2z M211.9,277.6     c0,0.8-0.6,1.5-1.5,1.5h-18.9c-0.8,0-1.5-0.6-1.5-1.5v-20.7c0-0.8,0.6-1.5,1.5-1.5h18.9c0.8,0,1.5,0.6,1.5,1.5V277.6z      M216.3,203.5c0-0.8,0.6-1.5,1.5-1.5h18.9c0.8,0,1.5,0.6,1.5,1.5v20.7c0,0.8-0.6,1.5-1.5,1.5h-18.9c-0.8,0-1.5-0.6-1.5-1.5V203.5     z M216.5,230.2c0-0.8,0.6-1.5,1.5-1.5H237c0.8,0,1.5,0.6,1.5,1.5v20.7c0,0.8-0.6,1.5-1.5,1.5H218c-0.8,0-1.5-0.6-1.5-1.5V230.2z      M238.6,277.6c0,0.8-0.6,1.5-1.5,1.5h-18.9c-0.8,0-1.5-0.6-1.5-1.5v-20.7c0-0.8,0.6-1.5,1.5-1.5h18.9c0.8,0,1.5,0.6,1.5,1.5     V277.6z" fill="#FFFFFF" id="XMLID_352_"/><path d="M270.2,199.3v82.4h55.2v-82.4H270.2z M273.4,203.6c0-0.8,0.6-1.5,1.5-1.5h18.9     c0.8,0,1.5,0.6,1.5,1.5v20.7c0,0.8-0.6,1.5-1.5,1.5h-18.9c-0.8,0-1.5-0.6-1.5-1.5V203.6z M273.6,230.3c0-0.8,0.6-1.5,1.5-1.5H294     c0.8,0,1.5,0.6,1.5,1.5v20.7c0,0.8-0.6,1.5-1.5,1.5h-18.9c-0.8,0-1.5-0.6-1.5-1.5V230.3z M295.7,277.7c0,0.8-0.6,1.5-1.5,1.5     h-18.9c-0.8,0-1.5-0.6-1.5-1.5V257c0-0.8,0.6-1.5,1.5-1.5h18.9c0.8,0,1.5,0.6,1.5,1.5V277.7z M300.1,203.6c0-0.8,0.6-1.5,1.5-1.5     h18.9c0.8,0,1.5,0.6,1.5,1.5v20.7c0,0.8-0.6,1.5-1.5,1.5h-18.9c-0.8,0-1.5-0.6-1.5-1.5V203.6z M300.3,230.3     c0-0.8,0.6-1.5,1.5-1.5h18.9c0.8,0,1.5,0.6,1.5,1.5v20.7c0,0.8-0.6,1.5-1.5,1.5h-18.9c-0.8,0-1.5-0.6-1.5-1.5V230.3z      M322.4,277.7c0,0.8-0.6,1.5-1.5,1.5H302c-0.8,0-1.5-0.6-1.5-1.5V257c0-0.8,0.6-1.5,1.5-1.5h18.9c0.8,0,1.5,0.6,1.5,1.5V277.7z" fill="#FFFFFF" id="XMLID_344_"/><g id="XMLID_323_"><rect fill="#FFFFFF" height="7.2" id="XMLID_343_" width="11.8" x="242.6" y="253.8"/><rect fill="#FFFFFF" height="7.2" id="XMLID_342_" width="11.8" x="242.6" y="202.2"/><rect fill="#FFFFFF" height="7" id="XMLID_341_" width="11.8" x="242.6" y="245.2"/><rect fill="#FFFFFF" height="7.4" id="XMLID_340_" width="11.8" x="242.6" y="262.6"/><rect fill="#FFFFFF" height="6.9" id="XMLID_339_" width="11.8" x="242.6" y="271.6"/><rect fill="#FFFFFF" height="1.6" id="XMLID_338_" width="26.8" x="242.6" y="280.2"/><rect fill="#FFFFFF" height="6.8" id="XMLID_337_" width="11.8" x="242.6" y="211.1"/><rect fill="#FFFFFF" height="7" id="XMLID_336_" width="11.8" x="242.6" y="219.5"/><rect fill="#FFFFFF" height="6.9" id="XMLID_335_" width="11.8" x="242.6" y="236.7"/><rect fill="#FFFFFF" height="7" id="XMLID_334_" width="11.8" x="242.6" y="228.1"/><rect fill="#FFFFFF" height="7" id="XMLID_333_" width="13.4" x="256.1" y="245.2"/><rect fill="#FFFFFF" height="7.2" id="XMLID_332_" width="13.4" x="256.1" y="202.2"/><rect fill="#FFFFFF" height="7" id="XMLID_331_" width="13.4" x="256.1" y="219.5"/><rect fill="#FFFFFF" height="6.8" id="XMLID_330_" width="13.4" x="256.1" y="211.1"/><rect fill="#FFFFFF" height="1.3" id="XMLID_329_" width="26.8" x="242.6" y="199.3"/><rect fill="#FFFFFF" height="7.4" id="XMLID_328_" width="13.4" x="256.1" y="262.6"/><rect fill="#FFFFFF" height="6.9" id="XMLID_327_" width="13.4" x="256.1" y="271.6"/><rect fill="#FFFFFF" height="7" id="XMLID_326_" width="13.4" x="256.1" y="228.1"/><rect fill="#FFFFFF" height="7.2" id="XMLID_325_" width="13.4" x="256.1" y="253.8"/><rect fill="#FFFFFF" height="6.9" id="XMLID_324_" width="13.4" x="256.1" y="236.7"/></g><polygon fill="#FFFFFF" id="XMLID_322_" points="184.8,142.9 184.8,147.6 322.4,105.3 320.7,101.5    "/><polygon fill="#FFFFFF" id="XMLID_321_" points="184.8,136.7 184.8,141.4 320.1,99.8 318.4,96    "/><g id="XMLID_312_"><path d="M240.5,157.1c-1.5,0-2.6,0.5-3.5,1.6c-0.8,1.1-1.3,2.4-1.3,4.2v3.3      c0,1.7,0.4,3.1,1.3,4.2s2,1.6,3.5,1.6c1.5,0,2.8-0.5,3.6-1.6s1.3-2.4,1.3-4.2v-3.3c0-1.7-0.4-3.1-1.3-4.2      C243.3,157.6,242.1,157.1,240.5,157.1z" fill="#FFFFFF" id="XMLID_320_"/><path d="M185.1,149.6l1.9,49h135.7v-91.3L185.1,149.6z M229.8,173.7h-2.5v-8.1h-8.9v8.1h-2.5      v-18.4h2.5v8.3h8.9v-8.3h2.5V173.7z M248.1,166.1c0,2.2-0.7,4.1-2.1,5.6c-1.4,1.5-3.2,2.2-5.4,2.2c-2.1,0-3.9-0.8-5.2-2.2      c-1.3-1.5-2-3.3-2-5.6v-3.3c0-2.2,0.6-4.1,2-5.6s3.1-2.2,5.2-2.2c2.2,0,4,0.8,5.4,2.2c1.4,1.5,2.1,3.3,2.1,5.6V166.1z       M263.8,157.2h-6.1v16.4h-2.5v-16.4h-6v-2h14.5V157.2z M277.6,173.7h-11.3v-18.4h11.2v2h-8.7v6h7.6v2h-7.6v6.6h8.8L277.6,173.7      L277.6,173.7z M291.9,173.7h-11.5v-18.4h2.5v16.4h9V173.7z" fill="#FFFFFF" id="XMLID_313_"/></g><polygon fill="#FFFFFF" id="XMLID_311_" points="186.1,198.7 136.2,198.6 160.9,167.1    "/><polygon fill="#FFFFFF" id="XMLID_310_" points="375.8,198.7 326,198.7 351,167.2    "/></g><rect fill="#FFFFFF" height="7.1" id="XMLID_308_" width="251.5" x="130.3" y="408.9"/></g></g></svg>